<?xml version="1.0" encoding="UTF-8" standalone="no"?>
<svg
   xmlns:dc="http://purl.org/dc/elements/1.1/"
   xmlns:cc="http://creativecommons.org/ns#"
   xmlns:rdf="http://www.w3.org/1999/02/22-rdf-syntax-ns#"
   xmlns:svg="http://www.w3.org/2000/svg"
   xmlns="http://www.w3.org/2000/svg"
   xmlns:sodipodi="http://sodipodi.sourceforge.net/DTD/sodipodi-0.dtd"
   xmlns:inkscape="http://www.inkscape.org/namespaces/inkscape"
   inkscape:version="1.0 (4035a4fb49, 2020-05-01)"
   sodipodi:docname="bootstrap-seeklogo.com.svg"
   id="svg8"
   preserveAspectRatio="xMidYMid"
   version="1.1"
   viewBox="0 0 918.98389 256"
   height="256"
   width="918.98389">
  <metadata
     id="metadata14">
    <rdf:RDF>
      <cc:Work
         rdf:about="">
        <dc:format>image/svg+xml</dc:format>
        <dc:type
           rdf:resource="http://purl.org/dc/dcmitype/StillImage" />
      </cc:Work>
    </rdf:RDF>
  </metadata>
  <defs
     id="defs12" />
  <sodipodi:namedview
     inkscape:current-layer="svg8"
     inkscape:window-maximized="1"
     inkscape:window-y="0"
     inkscape:window-x="0"
     inkscape:cy="95.748789"
     inkscape:cx="372.11344"
     inkscape:zoom="0.41245787"
     showgrid="false"
     id="namedview10"
     inkscape:window-height="986"
     inkscape:window-width="1920"
     inkscape:pageshadow="2"
     inkscape:pageopacity="0"
     guidetolerance="10"
     gridtolerance="10"
     objecttolerance="10"
     borderopacity="1"
     bordercolor="#666666"
     pagecolor="#ffffff" />
  <g
     id="g6">
    <path
       id="path2"
       fill="#563d7c"
       d="M 0,222.99122 C 0,241.22347 14.778532,256 33.008775,256 H 222.99122 C 241.22347,256 256,241.22147 256,222.99122 V 33.008775 C 256,14.776526 241.22147,0 222.99122,0 H 33.008775 C 14.776526,0 0,14.778532 0,33.008775 Z" />
    <path
       id="path4"
       fill="#ffffff"
       d="M 106.15756,113.2381 V 76.984594 h 31.91177 c 3.03923,0 5.96987,0.253265 8.79201,0.759804 2.82215,0.506538 5.31862,1.411058 7.4895,2.713585 2.17088,1.302528 3.90756,3.111567 5.21008,5.427171 1.30253,2.315605 1.95379,5.282428 1.95379,8.90056 0,6.512636 -1.95377,11.216136 -5.86135,14.110646 -3.90758,2.8945 -8.90053,4.34174 -14.97899,4.34174 z M 72.07493,50.5 v 155 h 75.11204 c 6.94682,0 13.71262,-0.86834 20.29762,-2.60504 6.585,-1.73671 12.44629,-4.41408 17.58404,-8.03222 5.13774,-3.61813 9.22617,-8.28545 12.2654,-14.0021 3.03923,-5.71664 4.55883,-12.48245 4.55883,-20.29762 0,-9.69659 -2.35175,-17.98199 -7.05533,-24.85644 -4.70357,-6.87445 -11.83118,-11.68649 -21.38305,-14.43627 6.94681,-3.32868 12.19303,-7.59801 15.7388,-12.80812 3.54577,-5.21011 5.31863,-11.722655 5.31863,-19.53782 0,-7.236264 -1.19397,-13.314635 -3.58194,-18.235294 -2.38797,-4.92066 -5.75278,-8.864365 -10.09454,-11.831233 -4.34175,-2.966868 -9.55179,-5.101534 -15.63025,-6.404062 C 159.12672,51.151254 152.3971,50.5 145.01611,50.5 Z m 34.08263,128.51541 v -42.54902 h 37.12185 c 7.38099,0 13.31464,1.70049 17.80112,5.10154 4.48649,3.40104 6.72969,9.08142 6.72969,17.04131 0,4.05231 -0.68743,7.38094 -2.06232,9.986 -1.37489,2.60505 -3.22011,4.66736 -5.53572,6.18697 -2.3156,1.51962 -4.99298,2.60504 -8.03221,3.2563 -3.03923,0.65127 -6.22314,0.9769 -9.55182,0.9769 z" />
  </g>
  <path
     style="fill:#573e7d;stroke-width:0.543878"
     id="path839"
     d="m 294.05344,79.311291 c 0.51343,-0.0941 0.93439,-0.23984 1.35372,-0.23876 17.30401,0.0669 34.60912,0.0413 51.91092,0.28282 5.8968,0.0816 11.3149,2.16191 16.1592,5.6101 11.0576,7.86828 12.079,30.346739 -3.1007,38.409729 -0.7723,0.41008 -1.5413,0.82452 -2.5899,1.38471 2.8847,1.32435 5.7227,2.21195 8.1016,3.79192 9.1301,6.06533 12.8486,19.63616 8.7613,31.55579 -3.5667,10.39948 -12.0349,14.69394 -21.8829,16.97823 -3.2344,0.75055 -6.6217,1.13996 -9.9437,1.16335 -16.1755,0.11694 -32.35204,0.0522 -48.77117,0.0522 0.002,-32.95899 0.002,-65.92233 0.002,-98.990099 z M 311.35365,163.794 c 12.03053,0 23.71413,0.27411 35.37603,-0.099 7.3309,-0.23441 12.6283,-8.09236 12.1872,-15.73547 -0.4346,-7.5338 -5.0739,-13.94067 -12.2449,-14.2757 -11.5612,-0.54007 -23.154,-0.38724 -34.7342,-0.50798 -0.17296,-0.001 -0.34863,0.25344 -0.58467,0.43673 z m 0.0403,-43.51511 c 10.75293,0 21.12303,0.39159 31.44703,-0.12999 7.6029,-0.38452 11.8941,-6.46345 11.6096,-14.77335 -0.2518,-7.357579 -4.5963,-11.782569 -12.4178,-11.989239 -9.8066,-0.25726 -19.6242,-0.13815 -29.43795,-0.16099 -0.39921,-10e-4 -0.79896,0.21429 -1.20088,0.3285 z m 536.21723,-13.59912 h 14.4241 v 7.73068 c 1.6061,-1.23842 3.5619,-2.61388 5.3665,-4.16339 11.0517,-9.48523 37.2666,-8.32133 46.2384,10.7802 7.7203,16.43925 7.3847,32.9715 -3.0371,48.27622 -5.7721,8.47688 -14.7102,11.50628 -24.8345,10.96131 -8.7967,-0.4748 -16.5415,-3.23988 -22.6356,-11.3839 v 36.04658 h -15.5207 c 0,-32.77842 0,-65.41979 0,-98.2477 z m 14.6532,36.19832 c 0.6498,3.59993 1.0072,7.28633 2.0118,10.7851 2.2424,7.80791 9.0707,13.58171 16.1433,14.08045 9.4608,0.66734 16.2548,-2.82816 19.6742,-11.21585 4.3467,-10.65946 4.1928,-21.40974 -2.1597,-31.37195 -7.4919,-11.75157 -25.4464,-10.76933 -31.7956,1.54135 -2.6133,5.06785 -3.8925,10.40166 -3.874,16.1809 z m -24.8722,25.16903 c 0,2.94619 0.104,5.93806 -0.076,8.9147 -0.043,0.73478 -0.9654,1.97591 -1.5626,2.02704 -4.4983,0.37473 -9.0706,1.03064 -13.512,0.56726 -3.9153,-0.409 -6.0729,-3.72774 -7.2798,-7.56534 -9.2948,7.56697 -19.9537,9.2035 -31.292,7.79866 -9.4819,-1.17423 -17.3361,-8.95984 -18.0116,-17.60423 -0.9327,-11.91419 3.6446,-19.67206 14.3426,-22.49641 7.5028,-1.97972 15.3178,-2.77541 22.9902,-4.11281 1.8612,-0.32415 3.7446,-0.58847 5.5623,-1.08558 3.4917,-0.95287 6.0103,-2.88581 6.266,-6.86047 0.2644,-4.10846 -1.3286,-7.30972 -5.1902,-8.86467 -6.5902,-2.6514 -13.2994,-2.58559 -19.7879,0.45033 -2.9603,1.38472 -4.7187,4.17155 -6.2693,8.90491 h -15.2041 c 0.013,-5.7961 2.0298,-10.66761 5.8799,-14.76899 5.0864,-5.41812 11.7146,-7.54522 18.8541,-8.29196 7.4729,-0.78156 14.9033,-0.74675 22.163,1.70124 9.7631,3.2921 14.4383,9.73324 14.4242,20.04516 -0.014,10.94609 0,21.89217 -0.01,32.83988 0,7.76875 0,7.76875 7.7094,8.40128 z m -23.4982,-24.70075 c -4.792,0.82996 -9.1757,1.4663 -13.5023,2.37131 -4.5507,0.95179 -9.1888,1.7763 -13.5279,3.36551 -4.2542,1.55876 -5.6998,5.5345 -5.559,9.80395 0.1338,4.0818 2.9223,6.3688 6.5157,7.62462 6.1632,2.15321 12.3411,1.8878 18.2199,-0.86151 4.2096,-1.96938 7.4147,-5.18913 7.7916,-10.10851 0.3105,-4.09757 0.062,-8.23811 0.062,-12.19537 z m -391.215,-38.73497 c 23.8442,-0.2801 37.8267,17.19796 36.3517,40.99642 -0.5118,8.27183 -2.7346,16.00251 -8.1794,22.53992 -5.8674,7.04376 -13.4169,10.75301 -22.4675,11.75918 -7.5578,0.84247 -14.9019,0.34754 -21.9047,-2.83088 -10.429,-4.73446 -16.3778,-12.99651 -18.8803,-24.00513 -1.7158,-7.54522 -1.6409,-15.05889 0.2828,-22.52252 4.2439,-16.46427 16.9222,-25.87281 34.7974,-25.93699 z m -20.756,37.97789 c 0.6259,3.49333 0.9529,7.07368 1.9357,10.46367 2.5012,8.63079 9.3133,14.32955 17.1016,14.70699 9.6271,0.46665 16.3631,-3.58306 19.9408,-12.55052 3.4933,-8.75425 3.4988,-17.71355 -0.3313,-26.3623 -5.6742,-12.81321 -21.1334,-16.08953 -31.088,-6.56569 -5.6765,5.43008 -7.1416,12.64571 -7.5588,20.30785 z m 103.4825,-37.9768 c 21.5061,-0.0337 36.1391,14.45844 36.411,36.01395 0.1153,9.10179 -1.3673,17.78099 -6.7103,25.40562 -7.6481,10.91562 -18.6953,14.73473 -31.4139,14.1555 -4.686,-0.21374 -9.5439,-1.25472 -13.9113,-2.96903 -10.2543,-4.02524 -16.3685,-11.95062 -19.0857,-22.55841 -2.3849,-9.315 -2.1195,-18.57125 0.9142,-27.67577 4.6529,-13.96569 17.4166,-22.34739 33.796,-22.37186 z m 20.6135,36.04114 c -0.3469,-1.91172 -0.6891,-5.60574 -1.7198,-9.09744 -2.6199,-8.88044 -9.544,-14.2719 -18.2678,-14.65098 -8.2158,-0.35787 -15.6054,4.48645 -18.792,12.9704 -3.7533,9.99266 -3.477,19.94617 2.1782,29.25681 5.8913,9.69952 19.2463,11.82499 28.0048,4.58816 6.6827,-5.52199 8.3176,-13.14607 8.5966,-23.06695 z m 132.9678,-14.0625 c -4.9074,0 -9.687,0.0403 -14.4628,-0.0511 -0.5884,-0.0109 -1.5043,-0.60044 -1.6941,-1.12855 -2.6857,-7.45983 -9.005,-8.34689 -15.5397,-8.38442 -2.7096,-0.0163 -5.5927,0.64341 -8.1016,1.69581 -5.3621,2.24948 -5.9582,8.31643 -0.9328,11.22237 3.4863,2.01616 7.5795,3.09902 11.5117,4.20636 5.5639,1.56691 11.3078,2.51054 16.8358,4.18078 14.1343,4.27216 19.6584,18.44344 11.7445,30.12593 -3.7963,5.60249 -9.4733,8.63515 -15.983,10.20641 -9.6206,2.32182 -19.1994,2.49205 -28.6014,-0.90338 -10.0601,-3.63473 -15.3743,-10.92922 -16.1586,-21.97048 h 15.3504 c 4.3646,11.39261 16.6976,15.82956 28.2517,10.00789 2.6726,-1.34773 4.4571,-3.26381 4.6355,-6.41395 0.1903,-3.3666 -1.1101,-6.26166 -4.1313,-7.38858 -5.3866,-2.00908 -11.0124,-3.38672 -16.5426,-5.00802 -4.5805,-1.34338 -9.3063,-2.31366 -13.7264,-4.06277 -8.5269,-3.37693 -12.2318,-9.18664 -12.1796,-18.04369 0.046,-7.72524 4.5615,-14.34423 12.5685,-17.24745 11.02,-3.99587 22.2669,-4.49297 33.3359,-0.15664 7.4837,2.93151 11.9441,8.71293 13.7987,16.4969 0.1675,0.71847 0.021,1.5147 0.021,2.6166 z m -83.3411,-20.11097 h 14.2076 v 11.61778 h -13.9221 c -0.099,1.39123 -0.2252,2.36478 -0.2268,3.33777 -0.013,11.72655 -0.019,23.45256 0.01,35.17693 0,1.56038 0.1235,3.12512 0.2774,4.67952 0.3056,3.10065 2.0271,4.94222 5.1488,5.11191 2.8608,0.15718 5.7374,0.0337 8.7669,0.0337 v 11.61668 c -6.489,1.60607 -13.0841,1.52123 -19.4687,0.099 -7.4342,-1.65556 -10.4544,-6.77073 -10.5197,-16.45284 -0.09,-13.17707 -0.027,-26.35632 -0.029,-39.53448 v -3.87404 h -11.8 v -11.75047 h 11.6406 V 85.024731 h 15.9215 c 0,7.03832 0,14.024978 0,21.455429 z m 132.8742,72.02193 c -6.1132,0 -11.9005,0.19035 -17.6685,-0.0544 -5.5905,-0.23714 -9.8958,-3.94475 -11.1174,-9.47816 a 46.980157,46.980157 0 0 1 -1.1002,-9.60597 c -0.1235,-12.39769 -0.051,-24.79865 -0.051,-37.19797 v -3.92082 h -11.7612 v -11.59492 h 11.5861 V 85.045401 h 15.9519 v 21.254189 h 14.1398 v 11.67924 h -13.5682 c -0.1614,1.0524 -0.373,1.78011 -0.373,2.50945 -0.012,12.62286 -0.052,25.24572 0.03,37.86748 0.043,6.67556 1.791,8.28218 8.4078,8.23486 1.7676,-0.0114 3.5373,-0.001 5.5247,-0.001 z m 26.5342,-71.78208 v 12.22365 c 6.1261,-10.40057 14.6042,-15.82031 27.1248,-13.97276 v 15.0801 c -5.9478,-0.89413 -11.6847,-1.05349 -16.7656,2.59756 -6.6646,4.79102 -8.9919,11.79181 -9.1578,19.5089 -0.2561,11.92995 -0.067,23.87079 -0.067,36.06779 h -15.6239 v -71.50632 c 4.7328,0.001 9.3661,0.001 14.4894,0.001 z" />
</svg>
