<?xml version="1.0" encoding="UTF-8" standalone="no"?>
<svg
   xmlns:dc="http://purl.org/dc/elements/1.1/"
   xmlns:cc="http://creativecommons.org/ns#"
   xmlns:rdf="http://www.w3.org/1999/02/22-rdf-syntax-ns#"
   xmlns:svg="http://www.w3.org/2000/svg"
   xmlns="http://www.w3.org/2000/svg"
   xmlns:xlink="http://www.w3.org/1999/xlink"
   xmlns:sodipodi="http://sodipodi.sourceforge.net/DTD/sodipodi-0.dtd"
   xmlns:inkscape="http://www.inkscape.org/namespaces/inkscape"
   inkscape:version="1.0 (4035a4fb49, 2020-05-01)"
   sodipodi:docname="calculator.svg"
   xml:space="preserve"
   style="enable-background:new 0 0 512 512;"
   viewBox="0 0 512 512"
   y="0px"
   x="0px"
   id="Capa_1"
   version="1.1"><metadata
   id="metadata73"><rdf:RDF><cc:Work
       rdf:about=""><dc:format>image/svg+xml</dc:format><dc:type
         rdf:resource="http://purl.org/dc/dcmitype/StillImage" /><dc:title></dc:title></cc:Work></rdf:RDF></metadata><defs
   id="defs71"><linearGradient
     id="linearGradient902"
     inkscape:collect="always"><stop
       id="stop898"
       offset="0"
       style="stop-color:#006ba6;stop-opacity:1" /><stop
       id="stop900"
       offset="1"
       style="stop-color:#06a77d;stop-opacity:1" /></linearGradient><linearGradient
     gradientUnits="userSpaceOnUse"
     y2="254.70242"
     x2="710.93994"
     y1="254.72186"
     x1="-124.08433"
     id="linearGradient904"
     xlink:href="#linearGradient902"
     inkscape:collect="always" /></defs><sodipodi:namedview
   inkscape:current-layer="Capa_1"
   inkscape:window-maximized="1"
   inkscape:window-y="0"
   inkscape:window-x="0"
   inkscape:cy="332.86101"
   inkscape:cx="96.858178"
   inkscape:zoom="0.87276243"
   showgrid="false"
   id="namedview69"
   inkscape:window-height="986"
   inkscape:window-width="1920"
   inkscape:pageshadow="2"
   inkscape:pageopacity="0"
   guidetolerance="10"
   gridtolerance="10"
   objecttolerance="10"
   borderopacity="1"
   bordercolor="#666666"
   pagecolor="#ffffff" />
<g
   id="g6">
	<g
   id="g4">
		<path
   d="M 0 0 L 0 512 L 512 512 L 512 0 L 0 0 z M 30 30 L 241 30 L 241 241 L 30 241 L 30 30 z M 271 30 L 482 30 L 482 241 L 271 241 L 271 30 z M 120.5 85.5 L 120.5 120.5 L 85.5 120.5 L 85.5 150.5 L 120.5 150.5 L 120.5 185.5 L 150.5 185.5 L 150.5 150.5 L 185.5 150.5 L 185.5 120.5 L 150.5 120.5 L 150.5 85.5 L 120.5 85.5 z M 326.5 120.5 L 326.5 150.5 L 426.5 150.5 L 426.5 120.5 L 326.5 120.5 z M 30 271 L 241 271 L 241 482 L 30 482 L 30 271 z M 271 271 L 482 271 L 482 482 L 271 482 L 271 271 z M 110.75195 330.53711 L 89.537109 351.75195 L 114.28711 376.5 L 89.537109 401.24805 L 110.75195 422.46289 L 135.5 397.71289 L 160.24805 422.46289 L 181.46289 401.24805 L 156.71289 376.5 L 181.46289 351.75195 L 160.24805 330.53711 L 135.5 355.28711 L 110.75195 330.53711 z M 326.5 332 L 326.5 362 L 426.5 362 L 426.5 332 L 326.5 332 z M 326.5 392 L 326.5 422 L 426.5 422 L 426.5 392 L 326.5 392 z "
   style="fill-opacity:1;fill:url(#linearGradient904)"
   id="path2" />
	</g>
</g>
<g
   id="g12">
	<g
   id="g10">
		
	</g>
</g>
<g
   id="g18">
	<g
   id="g16">
		
	</g>
</g>
<g
   id="g24">
	<g
   id="g22">
		
	</g>
</g>
<g
   id="g30">
	<g
   id="g28">
		
	</g>
</g>
<g
   id="g36">
	<g
   id="g34">
		
	</g>
</g>
<g
   id="g38">
</g>
<g
   id="g40">
</g>
<g
   id="g42">
</g>
<g
   id="g44">
</g>
<g
   id="g46">
</g>
<g
   id="g48">
</g>
<g
   id="g50">
</g>
<g
   id="g52">
</g>
<g
   id="g54">
</g>
<g
   id="g56">
</g>
<g
   id="g58">
</g>
<g
   id="g60">
</g>
<g
   id="g62">
</g>
<g
   id="g64">
</g>
<g
   id="g66">
</g>
</svg>
