<?xml version="1.0" encoding="UTF-8" standalone="no"?>
<svg
   xmlns:dc="http://purl.org/dc/elements/1.1/"
   xmlns:cc="http://creativecommons.org/ns#"
   xmlns:rdf="http://www.w3.org/1999/02/22-rdf-syntax-ns#"
   xmlns:svg="http://www.w3.org/2000/svg"
   xmlns="http://www.w3.org/2000/svg"
   xmlns:xlink="http://www.w3.org/1999/xlink"
   xmlns:sodipodi="http://sodipodi.sourceforge.net/DTD/sodipodi-0.dtd"
   xmlns:inkscape="http://www.inkscape.org/namespaces/inkscape"
   sodipodi:docname="logo.svg"
   inkscape:version="1.0 (4035a4fb49, 2020-05-01)"
   id="svg867"
   version="1.1"
   viewBox="0 0 59.556606 20.364649"
   height="20.364649mm"
   width="59.556606mm">
  <defs
     id="defs861">
    <linearGradient
       spreadMethod="pad"
       gradientUnits="userSpaceOnUse"
       y2="40.385681"
       x2="55.628208"
       y1="-15.527085"
       x1="132.64703"
       id="linearGradient1101"
       xlink:href="#linearGradient1099"
       inkscape:collect="always" />
    <linearGradient
       id="linearGradient1099"
       inkscape:collect="always">
      <stop
         id="stop1095"
         offset="0"
         style="stop-color:#06a77d;stop-opacity:1" />
      <stop
         id="stop1097"
         offset="1"
         style="stop-color:#006ba6;stop-opacity:1" />
    </linearGradient>
    <linearGradient
       spreadMethod="pad"
       y2="40.385681"
       x2="55.628208"
       y1="-15.527085"
       x1="132.64703"
       gradientUnits="userSpaceOnUse"
       id="linearGradient1499"
       xlink:href="#linearGradient1099"
       inkscape:collect="always" />
  </defs>
  <sodipodi:namedview
     inkscape:window-maximized="0"
     inkscape:window-y="0"
     inkscape:window-x="50"
     inkscape:window-height="986"
     inkscape:window-width="1533"
     fit-margin-bottom="0"
     fit-margin-right="0"
     fit-margin-left="0"
     fit-margin-top="0"
     showgrid="false"
     inkscape:document-rotation="0"
     inkscape:current-layer="layer1"
     inkscape:document-units="mm"
     inkscape:cy="225.80912"
     inkscape:cx="219.8514"
     inkscape:zoom="0.35"
     inkscape:pageshadow="2"
     inkscape:pageopacity="0.0"
     borderopacity="1.0"
     bordercolor="#666666"
     pagecolor="#ffffff"
     id="base" />
  <metadata
     id="metadata864">
    <rdf:RDF>
      <cc:Work
         rdf:about="">
        <dc:format>image/svg+xml</dc:format>
        <dc:type
           rdf:resource="http://purl.org/dc/dcmitype/StillImage" />
        <dc:title></dc:title>
      </cc:Work>
    </rdf:RDF>
  </metadata>
  <g
     transform="translate(-47.664317,-88.421337)"
     id="layer1"
     inkscape:groupmode="layer"
     inkscape:label="Layer 1">
    <g
       aria-label="TimMy"
       transform="translate(12.403855,68.372916)"
       id="text10-7"
       style="font-style:normal;font-variant:normal;font-weight:normal;font-stretch:normal;font-size:10.5833px;line-height:1.25;font-family:'Croissant One';-inkscape-font-specification:'Croissant One';white-space:pre;shape-inside:url(#rect12);mix-blend-mode:multiply;fill:url(#linearGradient1101);fill-opacity:1;stroke:none">
      <path
         id="path945-2"
         style="font-style:normal;font-variant:normal;font-weight:normal;font-stretch:normal;font-family:'Croissant One';-inkscape-font-specification:'Croissant One';fill:url(#linearGradient1499);fill-opacity:1;stroke-width:3.77953"
         d="m 168.74414,82.884766 c -21.25418,0 -38.48437,17.230194 -38.48437,38.484374 0,21.25419 17.23019,38.48438 38.48437,38.48438 38.74155,0 38.49609,-0.10352 38.49609,-0.10352 0,0 -0.0117,0.0177 -0.0117,-38.38086 0,-21.25418 -17.23019,-38.484374 -38.48438,-38.484374 z m 0.006,17.091796 c 11.79503,0 21.39063,9.597548 21.39062,21.392578 1e-5,11.79555 -9.59507,21.39063 -21.39062,21.39063 -11.79555,0 -21.39258,-9.59508 -21.39258,-21.39063 0,-11.79503 9.59755,-21.392578 21.39258,-21.392578 z m 0,3.093748 c -10.08993,0 -18.29883,8.2089 -18.29883,18.29883 0,10.08993 8.2089,18.29883 18.29883,18.29883 10.08941,0 18.29883,-8.2089 18.29883,-18.29883 0,-10.08993 -8.2089,-18.29883 -18.29883,-18.29883 z m 0,6.70117 c 0.8541,0 1.54492,0.69083 1.54492,1.54493 v 12.75781 l 4.60352,2.60351 c 0.74328,0.4201 1.00407,1.3626 0.58398,2.10743 -0.28401,0.50256 -0.80603,0.78711 -1.3457,0.78711 -0.25773,0 -0.51905,-0.0651 -0.75977,-0.20118 l -5.38867,-3.04687 c -0.0175,-0.01 -0.0318,-0.0244 -0.0488,-0.0352 -0.0454,-0.0284 -0.0881,-0.0593 -0.13086,-0.0918 -0.0402,-0.0309 -0.0791,-0.0622 -0.11523,-0.0957 -0.0346,-0.0325 -0.0657,-0.0685 -0.0977,-0.10351 -0.035,-0.0397 -0.0687,-0.0783 -0.0996,-0.1211 -0.0273,-0.0381 -0.0505,-0.0789 -0.0742,-0.11914 -0.0268,-0.0453 -0.0525,-0.0888 -0.0742,-0.13672 -0.0196,-0.0423 -0.0353,-0.088 -0.0508,-0.13281 -0.018,-0.0505 -0.0364,-0.10024 -0.0488,-0.15234 -0.0103,-0.0433 -0.0145,-0.0861 -0.0215,-0.13086 -0.009,-0.0577 -0.0156,-0.11698 -0.0176,-0.17578 -10e-4,-0.018 -0.006,-0.0347 -0.006,-0.0527 v -13.66015 c 0,-0.8541 0.69278,-1.54493 1.54688,-1.54493 z m 80.40625,2.38868 c -0.88,0 -1.6393,0.32094 -2.2793,0.96093 -0.61333,0.61334 -0.91992,1.36024 -0.91992,2.24024 0,0.88 0.30659,1.63931 0.91992,2.27929 0.64,0.61334 1.3993,0.91993 2.2793,0.91993 0.88,0 1.6269,-0.30659 2.24023,-0.91993 0.64,-0.63998 0.95899,-1.39929 0.95899,-2.27929 0,-0.88 -0.31899,-1.6269 -0.95899,-2.24024 -0.61333,-0.63999 -1.36023,-0.96093 -2.24023,-0.96093 z m -30.19922,2 c -0.58666,0 -1.02698,0.0267 -1.32031,0.0801 -0.26667,0.0267 -0.51977,0.17279 -0.75977,0.43946 -0.24,0.23999 -0.36133,0.62682 -0.36133,1.16015 l 1.08008,6.72071 h 1.56055 l 0.80078,-3.96094 c 0.24,-1.2 0.68032,-1.97169 1.32031,-2.31836 0.66667,-0.34667 1.87868,-0.52148 3.63868,-0.52148 h 0.40039 v 24.80078 h -4 v 1.59961 h 14 v -1.59961 h -4 V 115.7598 h 0.40039 c 1.75999,0 2.95961,0.17481 3.59961,0.52148 0.66666,0.34667 1.11937,1.11836 1.35937,2.31836 l 0.80078,3.96094 h 1.56055 l 1.08008,-6.72071 c 0,-0.53333 -0.12133,-0.92015 -0.36133,-1.16015 -0.24,-0.26668 -0.5055,-0.4128 -0.79883,-0.43946 -0.26666,-0.0533 -0.69458,-0.0801 -1.28125,-0.0801 z m 79.91992,0 v 1.59961 h 2.67969 l -1.40039,24.80078 H 297.756 v 1.59961 h 7.12109 v -1.59961 h -2.32031 l 1.11914,-19.75977 6.51953,21.35938 h 6.04102 l 6.16015,-21.40039 1.24024,19.80078 h -2.28125 v 1.59961 h 10.7207 v -1.59961 h -2.40039 l -1.43945,-24.80078 h 2.7207 v -1.59961 h -9.08008 l -6.88086,23.96093 -7.27929,-23.96093 z m 52,7 c -0.90666,0 -1.66792,0.30659 -2.28125,0.91992 -0.58666,0.58666 -0.8789,1.30683 -0.8789,2.16015 0,0.85334 0.29224,1.58589 0.8789,2.19922 0.61333,0.58667 1.29436,0.88086 2.04102,0.88086 0.74666,0 1.35985,-0.16047 1.83984,-0.48047 0.50667,1.41333 0.75977,2.76102 0.75977,4.04102 0,2.29333 -0.61318,4.17201 -1.83985,5.63867 -1.19999,1.46666 -2.65466,2.20117 -4.36132,2.20117 -0.8,0 -1.46667,-0.21396 -2,-0.64062 -0.53334,-0.45333 -0.79883,-1.10565 -0.79883,-1.95899 V 124 c 0,-0.69333 -0.37443,-1.26542 -1.1211,-1.71875 -0.74666,-0.48 -1.70557,-0.7207 -2.8789,-0.7207 -1.14667,0 -2.31954,0.2407 -3.51953,0.7207 -1.17333,0.48 -2.1466,1.11992 -2.91992,1.91992 l 1.08007,1.23828 c 0.77333,-0.93333 1.89272,-1.58565 3.35938,-1.95898 v 11.80078 c 0,2.13333 0.58643,3.78566 1.75976,4.95898 1.2,1.14667 2.65272,1.72071 4.35938,1.72071 4.42665,0 7.46776,-2.29421 9.12109,-6.88086 -1.09333,4.26665 -2.58714,7.3469 -4.48047,9.24023 -1.89332,1.89333 -4.33365,2.83985 -7.32031,2.83985 -0.96,0 -2.07938,-0.10697 -3.35937,-0.32032 l -1.04102,1.08008 2.08008,2.88086 c 0.53333,0.74667 1.00039,1.25287 1.40039,1.51953 0.42667,0.29333 0.95961,0.43946 1.59961,0.43946 2.37333,0 4.70667,-1.25311 7,-3.75977 1.11999,-1.25333 2.12,-2.73279 3,-4.43945 0.90666,-1.70666 1.62683,-3.74777 2.16015,-6.1211 0.56001,-2.37332 0.83985,-4.73146 0.83985,-7.07812 0,-2.37333 -0.23875,-4.53381 -0.71875,-6.48047 -0.29333,-1.12 -0.77474,-2.01302 -1.44141,-2.67969 -0.63999,-0.69333 -1.41169,-1.04101 -2.31836,-1.04101 z m -102.48047,0.40039 c -1.30666,0 -2.55976,0.2407 -3.75976,0.7207 -1.17333,0.48 -2.14659,1.11992 -2.91992,1.91992 l 1.08008,1.23828 c 0.77332,-0.93333 1.89271,-1.58565 3.35937,-1.95898 v 13.40039 c 0,3.91999 1.63993,5.87891 4.91992,5.87891 2.13333,0 4.26707,-0.97327 6.40039,-2.91993 l -0.7207,-0.95898 c -0.93333,0.77333 -1.75852,1.16016 -2.47852,1.16016 -0.71999,0 -1.25489,-0.20157 -1.60156,-0.60157 -0.34666,-0.42666 -0.51953,-0.99875 -0.51953,-1.71875 v -12.91992 c 0,-2.15999 -1.25311,-3.24023 -3.75977,-3.24023 z m 25.64063,0 c -1.36,0 -2.54722,0.19961 -3.56055,0.59961 -0.98666,0.37333 -1.95992,1.04 -2.91992,2 -0.93333,-0.69334 -1.84071,-1.19953 -2.7207,-1.51954 -0.85333,-0.31998 -1.94597,-0.48046 -3.2793,-0.48046 -1.30666,0 -2.53302,0.2407 -3.67969,0.7207 l 0.5586,1.48047 c 0.93333,-0.4 2.00117,-0.60156 3.20117,-0.60156 v 18.40039 h 6 v -14.2793 c 0,-1.14666 0.39922,-2.08078 1.19922,-2.80078 0.82666,-0.72 1.6538,-1.08008 2.48047,-1.08008 0.85333,0 1.52,0.22635 2,0.67969 0.47999,0.45333 0.7207,1.09326 0.7207,1.91992 v 15.56055 h 6 v -14.2793 c 0,-1.14666 0.39922,-2.08078 1.19922,-2.80078 0.82666,-0.72 1.6538,-1.08008 2.48047,-1.08008 0.85333,0 1.52,0.22635 2,0.67969 0.47999,0.45333 0.71875,1.09326 0.71875,1.91992 v 10.28125 c 0,3.91999 1.63993,5.87891 4.91992,5.87891 2.13333,0 4.26706,-0.97327 6.40039,-2.91993 l -0.71875,-0.95898 c -0.93333,0.77333 -1.76047,1.16016 -2.48047,1.16016 -0.72,0 -1.25294,-0.20157 -1.59961,-0.60157 -0.34666,-0.42666 -0.52148,-0.99875 -0.52148,-1.71875 v -10.28125 c 0,-1.81332 -0.53295,-3.2393 -1.59961,-4.27929 -1.04,-1.06667 -2.41248,-1.59961 -4.11914,-1.59961 -1.68,0 -3.05443,0.2407 -4.1211,0.7207 -1.03999,0.45333 -2.07914,1.25177 -3.11914,2.39844 -0.90666,-2.08 -2.71946,-3.11914 -5.43945,-3.11914 z"
         transform="matrix(0.26458333,0,0,0.26458333,0.79589863,-1.881506)" />
    </g>
  </g>
</svg>
