<?xml version="1.0" encoding="UTF-8" standalone="no"?>
<svg
   xmlns:dc="http://purl.org/dc/elements/1.1/"
   xmlns:cc="http://creativecommons.org/ns#"
   xmlns:rdf="http://www.w3.org/1999/02/22-rdf-syntax-ns#"
   xmlns:svg="http://www.w3.org/2000/svg"
   xmlns="http://www.w3.org/2000/svg"
   xmlns:xlink="http://www.w3.org/1999/xlink"
   xmlns:sodipodi="http://sodipodi.sourceforge.net/DTD/sodipodi-0.dtd"
   xmlns:inkscape="http://www.inkscape.org/namespaces/inkscape"
   inkscape:version="1.0 (4035a4fb49, 2020-05-01)"
   sodipodi:docname="puzzle.svg"
   version="1.1"
   width="512"
   viewBox="0 0 510.545 510.545"
   height="512"
   enable-background="new 0 0 510.545 510.545"
   id="Capa_1">
  <metadata
     id="metadata8">
    <rdf:RDF>
      <cc:Work
         rdf:about="">
        <dc:format>image/svg+xml</dc:format>
        <dc:type
           rdf:resource="http://purl.org/dc/dcmitype/StillImage" />
        <dc:title></dc:title>
      </cc:Work>
    </rdf:RDF>
  </metadata>
  <defs
     id="defs6">
    <linearGradient
       id="linearGradient837"
       inkscape:collect="always">
      <stop
         id="stop833"
         offset="0"
         style="stop-color:#006ba6;stop-opacity:1" />
      <stop
         id="stop835"
         offset="1"
         style="stop-color:#06a77d;stop-opacity:1" />
    </linearGradient>
    <linearGradient
       gradientUnits="userSpaceOnUse"
       y2="254.35999"
       x2="558.27771"
       y1="254.44086"
       x1="-35.577599"
       id="linearGradient839"
       xlink:href="#linearGradient837"
       inkscape:collect="always" />
  </defs>
  <sodipodi:namedview
     inkscape:current-layer="Capa_1"
     inkscape:window-maximized="1"
     inkscape:window-y="0"
     inkscape:window-x="0"
     inkscape:cy="255.86115"
     inkscape:cx="206.71051"
     inkscape:zoom="1.0958233"
     showgrid="false"
     id="namedview4"
     inkscape:window-height="986"
     inkscape:window-width="1920"
     inkscape:pageshadow="2"
     inkscape:pageopacity="0"
     guidetolerance="10"
     gridtolerance="10"
     objecttolerance="10"
     borderopacity="1"
     bordercolor="#666666"
     pagecolor="#ffffff" />
  <path
     style="fill-opacity:1;fill:url(#linearGradient839)"
     d="m.181 0v510.545h510.183v-510.545zm480.183 30v210.091h-83.046v47c0 12.131-9.869 22-22 22s-22-9.869-22-22v-47h-83.045v-53.046h17c28.673 0 52-23.327 52-52s-23.327-52-52-52h-17v-53.045zm-450.183 0h210.091v83.045h47c12.131 0 22 9.869 22 22.001 0 12.13-9.869 21.999-22 21.999h-47v83.409h-53.046v-17c0-28.673-23.327-52-52-52s-52 23.327-52 52v17h-53.045zm0 450.545v-210.091h83.045v-47c0-12.131 9.869-22 22-22 12.13 0 22 9.869 22 22v47h83.046v53.045h-17c-28.673 0-52 23.327-52 52.001 0 28.672 23.327 51.999 52 51.999h17v53.046zm450.183 0h-210.092v-83.046h-47c-12.131 0-22-9.869-22-22s9.869-22 22-22h47v-83.408h53.045v17c0 28.673 23.327 52 52 52s52-23.327 52-52v-17h53.046v210.454z"
     id="XMLID_1085_" />
</svg>
