<?xml version="1.0" encoding="UTF-8" standalone="no"?>
<svg
   xmlns:dc="http://purl.org/dc/elements/1.1/"
   xmlns:cc="http://creativecommons.org/ns#"
   xmlns:rdf="http://www.w3.org/1999/02/22-rdf-syntax-ns#"
   xmlns:svg="http://www.w3.org/2000/svg"
   xmlns="http://www.w3.org/2000/svg"
   xmlns:sodipodi="http://sodipodi.sourceforge.net/DTD/sodipodi-0.dtd"
   xmlns:inkscape="http://www.inkscape.org/namespaces/inkscape"
   inkscape:version="1.0 (4035a4fb49, 2020-05-01)"
   sodipodi:docname="vuejs.svg"
   id="svg12"
   version="1.1"
   viewBox="0 0 240.81404 94.469208"
   height="94.469208"
   width="240.81404">
  <metadata
     id="metadata18">
    <rdf:RDF>
      <cc:Work
         rdf:about="">
        <dc:format>image/svg+xml</dc:format>
        <dc:type
           rdf:resource="http://purl.org/dc/dcmitype/StillImage" />
      </cc:Work>
    </rdf:RDF>
  </metadata>
  <defs
     id="defs16" />
  <sodipodi:namedview
     inkscape:current-layer="svg12"
     inkscape:window-maximized="1"
     inkscape:window-y="0"
     inkscape:window-x="0"
     inkscape:cy="41.987774"
     inkscape:cx="101.79016"
     inkscape:zoom="3.3098835"
     showgrid="false"
     id="namedview14"
     inkscape:window-height="986"
     inkscape:window-width="1920"
     inkscape:pageshadow="2"
     inkscape:pageopacity="0"
     guidetolerance="10"
     gridtolerance="10"
     objecttolerance="10"
     borderopacity="1"
     bordercolor="#666666"
     pagecolor="#ffffff" />
  <path
     id="path2"
     white-space="normal"
     d="m 131.53687,21.668722 c -0.61707,0 -1.23159,0.176761 -1.76542,0.529629 -0.53382,0.352851 -1.02329,0.961353 -1.02329,1.742497 0,0.102726 -0.0604,0.333435 0.1406,0.735582 l -0.0522,-0.127499 10.72983,34.811443 c 0.19208,0.65306 0.65313,1.15214 1.1704,1.438489 0.51728,0.286349 1.08648,0.395585 1.63792,0.395585 1.17246,0 2.45991,-0.55954 2.85411,-1.821001 v -0.0033 l 10.71996,-34.942004 v -0.127499 c 0,0.176258 0.0522,0.07439 0.0522,-0.307305 0,-0.794469 -0.50742,-1.378615 -1.04943,-1.745845 -0.54203,-0.36718 -1.18015,-0.578657 -1.84393,-0.578657 -0.81858,0 -1.76024,0.497876 -2.07594,1.445017 l -0.007,0.0099 -8.65373,28.880927 -8.68654,-28.829037 c -0.12842,-0.515168 -0.47542,-0.946758 -0.87913,-1.186791 -0.4037,-0.240033 -0.84408,-0.320395 -1.26849,-0.320395 z m 85.45936,1.79489 c -1.70802,0 -3.14838,1.308463 -3.14838,2.945673 0,1.637144 1.41795,2.991371 3.14838,2.991371 1.69764,0 3.04694,-1.379603 3.04694,-2.991371 0,-1.611784 -1.3726,-2.945673 -3.04694,-2.945673 z m -25.15657,11.144951 c -5.83912,0 -10.64798,4.672604 -10.64798,10.288432 v 5.753923 c 0,3.145366 1.25333,5.841132 3.38038,7.702473 2.12715,1.861175 5.09626,2.890102 8.50007,2.890102 2.51415,0 4.5633,-0.562889 6.0286,-1.327328 0.73259,-0.382211 1.32124,-0.810956 1.75556,-1.278283 0.43437,-0.467311 0.7552,-0.978845 0.7552,-1.618279 0,-0.587143 -0.22613,-1.095899 -0.59175,-1.552915 -0.36561,-0.457016 -0.94152,-0.87617 -1.68374,-0.87617 -0.53609,0 -0.94765,0.225621 -1.30445,0.44463 -0.35678,0.218992 -0.69189,0.46095 -1.09521,0.693082 -0.80664,0.464264 -1.8754,0.915405 -3.76286,0.915405 -2.10137,0 -3.85375,-0.599278 -5.06077,-1.605223 -1.20715,-1.005945 -1.90922,-2.402503 -1.90922,-4.233716 v -1.065785 h 10.77218 c 1.14895,0 2.42611,0.0017 3.53086,-0.702908 1.10467,-0.705284 1.77514,-2.107065 1.77514,-4.240243 0,-5.907417 -4.92904,-10.186996 -10.44209,-10.186996 z m 40.48418,0 c -3.10368,0 -5.38617,1.004271 -6.85248,2.51415 -1.46626,1.509796 -2.09886,3.473947 -2.09886,5.309344 0,2.339063 0.94496,4.015443 2.29822,5.090234 1.35334,1.074807 3.03706,1.615651 4.63912,2.098863 1.6021,0.483229 3.13549,0.912091 4.16509,1.54637 1.0296,0.634296 1.58233,1.320415 1.58233,2.769081 0,0.777612 -0.23368,1.396559 -0.86637,1.902686 -0.63268,0.506144 -1.75588,0.90558 -3.58643,0.90558 -2.16548,0 -3.37569,-0.534115 -4.25664,-1.078859 -0.44043,-0.272372 -0.79529,-0.555021 -1.1606,-0.807507 -0.3653,-0.252487 -0.77953,-0.526348 -1.36001,-0.526348 -0.69866,0 -1.21379,0.430418 -1.52676,0.876153 -0.31296,0.445751 -0.49365,0.952163 -0.49365,1.500606 0,0.678118 0.33002,1.274333 0.79769,1.791541 0.4677,0.517243 1.10051,0.977506 1.87658,1.379636 1.55211,0.804277 3.68937,1.363282 6.22796,1.363282 2.75603,0 5.02261,-0.672727 6.62685,-1.977843 1.60413,-1.305182 2.47816,-3.245463 2.47816,-5.482588 0,-2.526872 -0.91855,-4.343856 -2.27211,-5.54469 -1.35361,-1.200766 -3.06251,-1.819829 -4.68817,-2.317973 -1.62558,-0.49816 -3.18989,-0.885911 -4.2369,-1.431944 -1.04704,-0.546049 -1.53982,-1.049733 -1.53982,-2.210008 0,-0.627634 0.25108,-1.417047 0.88924,-2.039944 0.63816,-0.62298 1.67923,-1.127903 3.40984,-1.127903 1.38271,0 2.41054,0.317533 3.23324,0.653847 0.41139,0.168157 0.76896,0.343846 1.10829,0.490393 0.33932,0.146463 0.6522,0.290969 1.10174,0.290969 0.81191,0 1.36835,-0.535588 1.69998,-1.033095 0.33168,-0.497508 0.52308,-0.988185 0.52308,-1.549634 0,-0.703377 -0.43766,-1.201871 -0.92193,-1.575797 -0.48427,-0.373925 -1.09133,-0.670752 -1.79489,-0.928461 -1.407,-0.515451 -3.20144,-0.850024 -5.00202,-0.850024 z m -73.41085,0.310586 c -1.35759,0 -2.53038,0.851229 -2.53038,2.118448 v 13.714674 c 0,5.563604 4.73001,10.491138 10.59575,10.491138 5.76681,0 10.59576,-4.869618 10.59576,-10.491138 V 36.98872 c 0,-0.634279 -0.34899,-1.184413 -0.80751,-1.533297 -0.45852,-0.348868 -1.04115,-0.536157 -1.67387,-0.536157 -0.63272,0 -1.21859,0.184846 -1.68692,0.526348 -0.46837,0.34152 -0.84348,0.887368 -0.84348,1.543106 v 13.763551 c 0,2.916381 -2.54144,5.737519 -5.58386,5.737519 -3.09298,0 -5.58386,-2.871354 -5.58386,-5.737519 V 37.037597 c 0,-0.656893 -0.35879,-1.163339 -0.80424,-1.523488 -0.44545,-0.36015 -1.02726,-0.59501 -1.67722,-0.59501 z m 58.08491,0 c -0.63474,0 -1.22274,0.16337 -1.69027,0.516539 -0.46748,0.353203 -0.78789,0.934337 -0.78789,1.552915 v 25.268718 c 0,1.896159 -0.1329,3.486668 -0.54923,4.449477 -0.41634,0.962793 -0.9076,1.389428 -2.31144,1.389428 -1.24022,0 -2.27546,1.083596 -2.27546,2.380074 0,0.538852 0.17381,1.13033 0.61463,1.592134 0.44081,0.461803 1.12512,0.732317 1.91574,0.732317 2.66865,0 4.71043,-1.183341 5.92717,-3.105863 1.21683,-1.922438 1.69027,-4.494169 1.69027,-7.437667 V 36.988502 c 0,-0.658432 -0.37615,-1.231297 -0.85329,-1.569251 -0.47712,-0.337971 -1.06317,-0.500202 -1.68039,-0.500202 z m -25.21013,4.138975 c 3.33317,0 5.58386,2.790506 5.58386,5.632902 0,0.309699 -0.0333,0.512522 -0.0654,0.604819 -0.032,0.09223 -0.029,0.08035 -0.0752,0.111145 -0.0924,0.0616 -0.60679,0.192879 -1.59213,0.192879 h -9.4351 V 44.48504 c 0,-2.9748 2.48486,-5.427017 5.58386,-5.427017 z m 15.92133,15.685988 c -1.82066,0 -3.2006,1.506566 -3.2006,3.249649 0,1.67437 1.35928,3.200604 3.2006,3.200604 1.74418,0 3.14838,-1.479784 3.14838,-3.200604 0,-1.786018 -1.42747,-3.249649 -3.14838,-3.249649 z"
     fill="#35495e"
     style="text-indent:0;text-decoration:none;text-decoration-line:none;text-decoration-style:solid;text-decoration-color:#000000;text-transform:none;isolation:auto;mix-blend-mode:normal;stroke-width:1.67387" />
  <g
     id="g10"
     transform="matrix(0.85771,0,0,0.85771,1.9834543e-8,-7.6625238)">
    <path
       id="path4"
       d="M -2.3125e-8,8.9337 49.854,9.0923 64.021,33.5623 78.453,9.0923 128,8.9349 64.166,119.0749 Z M 126.98,9.5711 102.62,9.5918 64.144,75.6438 25.691,9.5918 0.94199998,9.5722 64.153,117.4622 Z M 101.831,9.5631 79.086,9.73068 64.033,34.37768 49.216,9.73068 26.422,9.56278 64.153,74.03878 Z M 25.997,9.3929 48.999,9.4016 64.035,34.3596 79.018,9.4036 102,9.3975 64.15,75.0525"
       fill="none" />
    <path
       id="path6"
       d="M 25.997,9.3929 48.999,9.4016 64.035,34.3596 79.018,9.4036 102,9.3975 64.15,75.0525 Z"
       fill="#35495e" />
    <path
       id="path8"
       d="m 0.91068,9.5686 25.066,-0.1711 38.151,65.658 37.852,-65.654 25.11,0.0263 -62.966,108.06 z"
       fill="#41b883" />
  </g>
</svg>
