<?xml version="1.0" encoding="UTF-8" standalone="no"?>
<svg
   xmlns:dc="http://purl.org/dc/elements/1.1/"
   xmlns:cc="http://creativecommons.org/ns#"
   xmlns:rdf="http://www.w3.org/1999/02/22-rdf-syntax-ns#"
   xmlns:svg="http://www.w3.org/2000/svg"
   xmlns="http://www.w3.org/2000/svg"
   xmlns:sodipodi="http://sodipodi.sourceforge.net/DTD/sodipodi-0.dtd"
   xmlns:inkscape="http://www.inkscape.org/namespaces/inkscape"
   inkscape:version="1.0 (4035a4fb49, 2020-05-01)"
   height="30.280001"
   width="120.67"
   sodipodi:docname="webpack.svg"
   id="svg4"
   version="1.1"
   viewBox="0 0 120.67 30.280001">
  <metadata
     id="metadata10">
    <rdf:RDF>
      <cc:Work
         rdf:about="">
        <dc:format>image/svg+xml</dc:format>
        <dc:type
           rdf:resource="http://purl.org/dc/dcmitype/StillImage" />
        <dc:title></dc:title>
      </cc:Work>
    </rdf:RDF>
  </metadata>
  <defs
     id="defs8" />
  <sodipodi:namedview
     inkscape:current-layer="svg4"
     inkscape:window-maximized="1"
     inkscape:window-y="0"
     inkscape:window-x="0"
     inkscape:cy="15.14"
     inkscape:cx="60.33"
     inkscape:zoom="6.3125"
     fit-margin-bottom="0"
     fit-margin-right="0"
     fit-margin-left="0"
     fit-margin-top="0"
     showgrid="false"
     id="namedview6"
     inkscape:window-height="986"
     inkscape:window-width="1920"
     inkscape:pageshadow="2"
     inkscape:pageopacity="0"
     guidetolerance="10"
     gridtolerance="10"
     objecttolerance="10"
     borderopacity="1"
     bordercolor="#666666"
     pagecolor="#ffffff" />
  <path
     id="path2"
     d="m 26.46,23.34 -12.27,6.94 v -5.41 l 7.65,-4.21 4.63,2.67 z M 27.3,22.58 V 8.06 l -4.49,2.59 v 9.33 l 4.52,2.6 z M 0.84,23.34 13.11,30.28 V 24.87 L 5.46,20.67 Z M 0,22.58 V 8.06 l 4.49,2.59 v 9.33 z M 0.53,7.14 13.12,0.02 V 5.24 L 5.05,9.66 H 4.99 Z m 26.25,0 L 14.19,0 v 5.22 l 8.06,4.43 h 0.06 z M 13.11,23.64 5.57,19.49 v -8.22 l 7.55,4.36 z m 1.08,0 7.55,-4.15 v -8.22 l -7.55,4.36 z m -8.11,-13.31 7.57,-4.19 7.57,4.16 -7.57,4.37 z m 38.86,10.38 h 3.32 L 51.64,9.44 h -3.23 l -2,8 -2.14,-8 h -2.8 l -2.16,8 -2,-8 H 34.1 l 3.36,11.27 h 3.32 l 2.09,-7.22 z m 6.88,-5.57 a 5.62,5.62 0 0 0 5.93,5.88 5.35,5.35 0 0 0 4.74,-2.48 l -2,-1.49 a 3.29,3.29 0 0 1 -2.74,1.38 2.74,2.74 0 0 1 -2.93,-2.59 h 7.94 c 0,-0.22 0,-0.43 0,-0.65 0,-3.68 -2,-6 -5.47,-6 -3.21,0 -5.52,2.54 -5.52,5.95 z m 3.13,-1.23 a 2.39,2.39 0 0 1 2.38,-2.32 2.3,2.3 0 0 1 2.41,2.28 z m 9,6.83 h 2.8 v -1.2 a 4.39,4.39 0 0 0 3.34,1.44 c 3.23,0 5.52,-2.43 5.52,-5.9 0,-3.47 -2.13,-5.94 -5.36,-5.94 A 4.24,4.24 0 0 0 66.91,10.6 V 5.14 h -3 v 15.57 0 z m 2.87,-5.6 c 0,-2.11 1.25,-3.32 2.89,-3.32 1.64,0 2.89,1.32 2.89,3.32 0,2 -1.21,3.25 -2.89,3.25 a 3,3 0 0 1 -2.89,-3.25 z m 9.93,9.63 h 3 v -5.23 a 4.3,4.3 0 0 0 3.34,1.44 c 3.23,0 5.35,-2.43 5.35,-5.92 0,-3.49 -2.31,-5.92 -5.54,-5.92 A 4.32,4.32 0 0 0 79.56,10.6 V 9.43 h -2.8 v 15.31 z m 2.89,-9.7 a 3,3 0 0 1 2.89,-3.25 c 1.68,0 2.89,1.25 2.89,3.25 0,2 -1.16,3.32 -2.89,3.32 -1.73,0 -2.89,-1.25 -2.89,-3.35 z m 9.31,2.18 c 0,2.37 1.94,3.77 4.22,3.77 a 3.52,3.52 0 0 0 2.74,-1 l 0.19,0.73 h 2.63 v -7.18 c 0,-2.52 -1.08,-4.42 -4.7,-4.42 a 8.41,8.41 0 0 0 -4.44,1.34 l 1.12,2 a 6.65,6.65 0 0 1 3,-0.8 c 1.32,0 2,0.67 2,1.66 v 0.79 a 4.57,4.57 0 0 0 -2.38,-0.65 c -2.63,0 -4.38,1.5 -4.38,3.72 z m 3,-0.09 c 0,-0.93 0.8,-1.57 1.94,-1.57 1.14,0 2,0.58 2,1.57 0,0.99 -0.82,1.55 -1.94,1.55 -1.12,0 -2,-0.62 -2,-1.55 z m 14,1.23 a 3.29,3.29 0 0 1 -0.1,-6.57 3.83,3.83 0 0 1 2.63,1.08 l 0.84,-2.5 a 5.74,5.74 0 0 0 -3.55,-1.26 5.81,5.81 0 0 0 -6,5.95 5.73,5.73 0 0 0 6,5.88 5.67,5.67 0 0 0 3.56,-1.19 l -0.8,-2.43 a 4.12,4.12 0 0 1 -2.55,1 z m 4.46,2.35 h 3 v -5.85 l 3.77,5.82 h 3.49 l -4.27,-6.17 4,-5.11 h -3.34 l -3.67,4.71 v -9 h -3 v 15.57 z"
     fill="#1c78c0" />
</svg>
